<svg xmlns="http://www.w3.org/2000/svg" xmlns:xlink="http://www.w3.org/1999/xlink" width="500" zoomAndPan="magnify" viewBox="0 0 375 374.999991" height="500" preserveAspectRatio="xMidYMid meet" version="1.0"><defs><clipPath id="09fec4e83e"><path d="M 53.476562 53.234375 L 321.226562 53.234375 L 321.226562 321.710938 L 53.476562 321.710938 Z M 53.476562 53.234375 " clip-rule="nonzero"/></clipPath></defs><rect x="-37.5" width="450" fill="#ffffff" y="-37.499999" height="449.999989" fill-opacity="1"/><rect x="-37.5" width="450" fill="#ffba41" y="-37.499999" height="449.999989" fill-opacity="1"/><g clip-path="url(#09fec4e83e)"><path fill="#06569d" d="M 82.191406 117.988281 C 82.191406 108.417969 85.84375 99.601562 92.511719 92.9375 C 99.875 85.570312 108.691406 81.914062 118.261719 81.914062 L 144.011719 81.914062 L 161.695312 64.230469 C 169.113281 57.617188 177.929688 53.210938 187.5 53.210938 C 197.070312 53.210938 206.636719 57.617188 213.25 64.230469 L 225.023438 75.25 L 206.636719 75.25 L 204.433594 73.046875 C 200.023438 68.636719 194.113281 66.433594 187.5 66.433594 C 181.585938 66.433594 175.726562 68.636719 171.320312 73.046875 L 162.503906 81.863281 L 256.738281 81.863281 C 266.308594 81.863281 275.875 85.519531 282.488281 92.882812 C 289.101562 99.496094 293.507812 109.0625 293.507812 118.632812 L 293.507812 143.683594 L 311.195312 162.066406 C 317.808594 168.679688 321.515625 177.550781 321.515625 187.816406 C 321.515625 197.386719 317.859375 206.203125 311.195312 213.566406 L 299.421875 224.585938 L 299.421875 206.203125 L 302.378906 204 C 306.785156 199.589844 308.992188 193.675781 308.992188 187.816406 C 308.992188 181.207031 306.785156 175.292969 302.378906 170.882812 L 293.5625 162.066406 L 293.5625 256.304688 C 293.5625 266.625 289.152344 275.441406 282.542969 282.054688 C 275.929688 289.417969 266.359375 293.074219 256.792969 293.074219 L 231.742188 293.074219 L 214.054688 310.757812 L 213.304688 310.757812 C 206.691406 318.125 197.121094 321.78125 187.554688 321.78125 C 177.984375 321.78125 169.167969 318.125 161.804688 310.757812 L 150.785156 299.738281 L 168.46875 299.738281 L 170.671875 301.191406 L 171.425781 301.945312 C 175.835938 306.351562 181.746094 308.554688 187.605469 308.554688 C 194.21875 308.554688 200.132812 306.351562 204.539062 301.945312 L 213.410156 293.074219 L 204.59375 293.074219 L 204.59375 279.796875 L 256.847656 279.796875 C 263.457031 279.796875 268.617188 277.589844 273.78125 273.183594 C 278.1875 268.777344 280.390625 262.863281 280.390625 256.25 L 280.390625 243.726562 L 250.824219 274.152344 L 232.441406 274.152344 L 280.285156 226.308594 L 280.285156 118.738281 C 280.285156 112.128906 278.082031 106.214844 273.671875 101.804688 C 269.265625 97.398438 263.351562 95.195312 256.738281 95.195312 L 244.214844 95.195312 L 273.671875 124.652344 L 273.671875 143.039062 L 225.828125 95.195312 L 118.3125 95.195312 C 112.402344 95.195312 106.542969 97.398438 102.132812 101.804688 C 97.726562 106.214844 94.769531 112.128906 94.769531 118.738281 L 94.769531 131.265625 L 124.925781 101.054688 L 142.613281 101.054688 L 94.769531 148.898438 L 94.769531 257.164062 C 94.769531 263.078125 97.726562 268.9375 102.132812 273.34375 C 106.542969 277.753906 112.453125 279.957031 118.3125 279.957031 L 130.839844 279.957031 L 101.328125 250.550781 L 101.328125 232.167969 L 149.171875 280.011719 L 182.285156 280.011719 L 182.285156 246.894531 L 180.886719 246.894531 C 169.113281 245.445312 158.039062 239.53125 149.976562 231.414062 C 140.410156 221.84375 135.246094 209.320312 134.496094 196.792969 L 133.742188 194.589844 L 145.515625 194.589844 L 145.515625 196.042969 C 146.269531 206.363281 150.675781 215.933594 158.039062 223.296875 C 165.40625 231.414062 176.425781 235.824219 187.5 235.824219 C 199.273438 235.824219 209.59375 231.414062 217.710938 223.296875 C 225.074219 215.933594 229.484375 206.363281 230.238281 196.042969 L 230.238281 194.589844 L 241.257812 194.589844 L 241.257812 196.792969 C 240.503906 209.320312 234.644531 221.84375 225.773438 231.414062 C 216.957031 239.53125 205.882812 245.390625 194.113281 246.894531 L 193.359375 246.894531 L 193.359375 293.34375 L 118.261719 293.34375 C 108.691406 293.34375 99.875 289.6875 92.511719 282.320312 C 85.898438 275.710938 82.191406 266.839844 82.191406 256.574219 L 82.191406 231.523438 L 64.503906 213.835938 C 57.140625 206.363281 53.484375 197.546875 53.484375 187.980469 C 53.484375 177.65625 57.140625 168.839844 64.503906 162.230469 L 64.503906 161.476562 L 75.523438 150.457031 L 75.523438 168.839844 L 74.074219 170.292969 L 73.320312 171.046875 C 68.910156 175.453125 66.707031 181.367188 66.707031 187.980469 C 66.707031 193.890625 68.910156 199.75 73.320312 204.160156 L 74.074219 204.910156 L 82.191406 213.03125 Z M 187.5 122.449219 C 196.316406 122.449219 204.433594 125.40625 210.347656 132.015625 C 216.957031 137.929688 219.914062 145.996094 219.914062 154.863281 L 219.914062 193.140625 C 219.914062 201.957031 216.957031 210.074219 210.347656 216.683594 C 204.433594 222.597656 196.371094 226.253906 187.5 226.253906 C 179.382812 226.253906 170.566406 222.597656 164.652344 216.683594 C 158.738281 210.074219 155.085938 201.957031 155.085938 193.140625 L 155.085938 154.808594 C 155.085938 145.996094 158.738281 137.878906 164.652344 131.964844 C 170.566406 125.351562 179.382812 122.449219 187.5 122.449219 Z M 166.15625 165.882812 L 166.15625 169.539062 L 190.457031 169.539062 L 190.457031 178.355469 L 166.15625 178.355469 L 166.15625 182.765625 L 190.457031 182.765625 L 190.457031 193.085938 L 166.15625 193.085938 C 166.15625 199 168.363281 204.105469 172.769531 208.566406 C 176.425781 212.222656 182.339844 214.480469 187.5 214.480469 C 193.414062 214.480469 198.519531 212.277344 202.980469 208.566406 C 206.636719 204.160156 208.894531 199 208.894531 193.085938 L 208.894531 154.808594 C 208.894531 148.898438 206.691406 143.789062 202.980469 139.328125 C 198.574219 135.671875 193.414062 133.414062 187.5 133.414062 C 182.339844 133.414062 176.480469 135.621094 172.769531 139.328125 C 168.363281 143.738281 166.15625 148.898438 166.15625 154.808594 L 190.457031 154.808594 L 190.457031 165.132812 L 166.15625 165.132812 Z M 166.15625 165.882812 " fill-opacity="1" fill-rule="nonzero"/></g><path stroke-linecap="butt" transform="matrix(0, -0.75, 0.75, 0, 141.660142, 286.90914)" fill="none" stroke-linejoin="miter" d="M -0.00135452 2.00002 L 1.998646 2.00002 " stroke="#06569d" stroke-width="4" stroke-opacity="1" stroke-miterlimit="4"/></svg>